Patient4_TMGait_0pt4_03_left_13_GRF.mot
version=1
nRows=26
nColumns=19
inDegrees=no
endheader
time	F1x	F1y	F1z	M1x	M1y	M1z	F2x	F2y	F2z	M2x	M2y	M2z	EC1x	EC1y	EC1z	EC2x	EC2y	EC2z
16.77	-5.5071	-17.0095	-3.8576	3.3488	3.3013	-16.8032	-14.7063	715.1751	-69.2663	283.3899	73.549	733.9644	-0.0592	0.0182	-0.0073	-0.0462	0.0165	0.9585
16.7827	-3.6615	-10.6987	-2.5522	2.0107	2.1861	-10.4474	-14.6232	708.4581	-65.0636	280.375	69.7714	726.5052	-0.0592	0.0182	-0.0073	-0.0462	0.0165	0.9585
16.7954	-2.1019	-5.3476	-1.4612	0.87438	1.2596	-5.0617	-13.973	704.1755	-61.5357	278.2787	66.3165	720.9339	-0.0592	0.0182	-0.0073	-0.0462	0.0165	0.9585
16.8081	-0.91913	-1.2544	-0.63052	0.0032285	0.55589	-0.94005	-12.7847	703.5488	-58.9956	277.6088	63.4867	718.4725	-0.0592	0.0182	-0.0073	-0.0462	0.0165	0.9585
16.8209	-0.11436	1.6086	-0.063111	-0.6069	0.073641	1.9401	-11.1578	707.2004	-57.5308	278.6341	61.4192	719.7894	-0.0592	0.0182	-0.0073	-0.0462	0.0165	0.9585
16.8336	0.36354	3.4017	0.29311	-0.98753	-0.23849	3.7343	-9.1967	715.124	-57.0416	281.3698	60.0827	724.9443	-0.0592	0.0182	-0.0073	-0.0462	0.0165	0.9585
16.8463	0.58333	4.3524	0.48082	-1.1867	-0.42177	4.6733	-6.987	726.6869	-57.3256	285.5773	59.3429	733.3728	-0.0592	0.0182	-0.0073	-0.0462	0.0165	0.9585
16.859	0.61956	4.667	0.56643	-1.2444	-0.53489	4.9708	-4.6328	740.6907	-58.1152	290.7935	59.0017	743.9565	-0.0592	0.0182	-0.0073	-0.0462	0.0165	0.9585
16.8717	0.53553	4.4895	0.58281	-1.1834	-0.60444	4.7647	-2.2084	755.5417	-59.1582	296.3936	58.8607	755.1873	-0.0592	0.0182	-0.0073	-0.0462	0.0165	0.9585
16.8844	0.36866	3.9088	0.58132	-1.013	-0.67387	4.1288	0.21577	769.4801	-60.2173	301.684	58.7249	765.3919	-0.0592	0.0182	-0.0073	-0.0462	0.0165	0.9585
16.8971	0.16547	2.9614	0.58087	-0.73064	-0.75113	3.083	2.5619	780.8707	-61.0996	306.0159	58.4425	773.0276	-0.0592	0.0182	-0.0073	-0.0462	0.0165	0.9585
16.9099	-0.046362	1.628	0.59968	-0.31841	-0.84476	1.5977	4.7872	788.4752	-61.6584	308.8925	57.8985	776.9516	-0.0592	0.0182	-0.0073	-0.0462	0.0165	0.9585
16.9226	-0.22448	-0.10179	0.62377	0.2342	-0.92941	-0.35276	6.8694	791.5616	-61.8229	310.0155	57.0395	776.5107	-0.0592	0.0182	-0.0073	-0.0462	0.0165	0.9585
16.9353	-0.32874	-2.2048	0.64375	0.92203	-0.97794	-2.7341	8.831	789.9321	-61.5912	309.2973	55.862	771.5547	-0.0592	0.0182	-0.0073	-0.0462	0.0165	0.9585
16.948	-0.28663	-4.5569	0.61572	1.6991	-0.91912	-5.3975	10.7387	783.9598	-61.036	306.871	54.4145	762.485	-0.0592	0.0182	-0.0073	-0.0462	0.0165	0.9585
16.9607	-0.017609	-6.8333	0.50808	2.4509	-0.6861	-7.9652	12.6938	774.494	-60.2709	303.0585	52.7684	750.1354	-0.0592	0.0182	-0.0073	-0.0462	0.0165	0.9585
16.9734	0.60308	-8.4383	0.2538	2.968	-0.16647	-9.7653	14.7964	762.7341	-59.4367	298.3164	51.0157	735.6701	-0.0592	0.0182	-0.0073	-0.0462	0.0165	0.9585
16.9861	1.696	-8.4279	-0.20027	2.9213	0.74448	-9.7429	17.1323	749.9867	-58.6683	293.1439	49.2444	720.3506	-0.0592	0.0182	-0.0073	-0.0462	0.0165	0.9585
16.9989	3.3725	-5.4329	-0.91806	1.8374	2.1533	-6.3794	19.717	737.384	-58.0717	287.9756	47.5368	705.2857	-0.0592	0.0182	-0.0073	-0.0462	0.0165	0.9585
17.0116	5.6921	2.2964	-1.9267	-0.88564	4.11	2.2773	22.4849	725.6293	-57.6913	283.0831	45.9511	691.2019	-0.0592	0.0182	-0.0073	-0.0462	0.0165	0.9585
17.0243	8.5959	16.7879	-3.2178	-5.941	6.5823	18.4989	25.2858	714.8176	-57.5076	278.5048	44.5301	678.2662	-0.0592	0.0182	-0.0073	-0.0462	0.0165	0.9585
17.037	11.8187	40.0502	-4.6722	-14.0095	9.3496	44.5443	27.8724	704.3622	-57.4123	274.0224	43.2742	666.0206	-0.0592	0.0182	-0.0073	-0.0462	0.0165	0.9585
17.0497	14.7902	73.5137	-6.0466	-25.5644	11.9418	82.0434	29.9701	693.0666	-57.2264	269.1903	42.132	653.4393	-0.0592	0.0182	-0.0073	-0.0462	0.0165	0.9585
17.0624	16.5302	117.1625	-6.9034	-40.5692	13.5266	131.0147	31.3372	679.3407	-56.7081	263.4149	40.9875	639.1221	-0.0592	0.0182	-0.0073	-0.0462	0.0165	0.9585
17.0751	15.6603	168.4734	-6.5806	-58.113	12.8861	188.6848	31.8198	661.4912	-55.6102	256.0668	39.6804	621.525	-0.0592	0.0182	-0.0073	-0.0462	0.0165	0.9585
17.0879	11.3699	221.9814	-4.2729	-76.2647	8.8471	248.9678	31.3923	638.1806	-53.743	246.654	38.0515	599.3748	-0.0592	0.0182	-0.0073	-0.0462	0.0165	0.9585
